<?xml version="1.0" encoding="UTF-8"?><svg xmlns="http://www.w3.org/2000/svg" xmlns:svg="http://www.w3.org/2000/svg" xmlns:xlink="http://www.w3.org/1999/xlink" version="1.0" width="48" height="48" id="svg11300">
<defs id="defs">
 <radialGradient cx="605.71429" cy="486.64789" r="117.14286" fx="605.71429" fy="486.64789" id="R1" xlink:href="#G1" gradientUnits="userSpaceOnUse" gradientTransform="matrix(-2.774389,0,0,1.969706,112.7623,-872.8854)"/>
<linearGradient id="G1">
  <stop id="s1" style="stop-color:#000" offset="0"/>
  <stop id="s2" style="stop-color:#000;stop-opacity:0" offset="1"/>
</linearGradient>
<radialGradient cx="605.71429" cy="486.64789" r="117.14286" fx="605.71429" fy="486.64789" id="R2" xlink:href="#G1" gradientUnits="userSpaceOnUse" gradientTransform="matrix(2.774389,0,0,1.969706,-1891.633,-872.8854)"/>
<linearGradient id="G2">
  <stop id="s3" style="stop-color:#000;stop-opacity:0" offset="0"/>
  <stop id="s4" style="stop-color:#000" offset="0.5"/>
  <stop id="s5" style="stop-color:#000;stop-opacity:0" offset="1"/>
</linearGradient>
<linearGradient x1="302.85715" y1="366.64789" x2="302.85715" y2="609.50507" id="G3" xlink:href="#G2" gradientUnits="userSpaceOnUse" gradientTransform="matrix(2.774389,0,0,1.969706,-1892.179,-872.8854)"/>
<linearGradient id="G4">
  <stop id="s6" style="stop-color:#000" offset="0"/>
  <stop id="s7" style="stop-color:#c9c9c9" offset="1"/>
</linearGradient>
<linearGradient id="G5">
  <stop id="s8" style="stop-color:#e7e2b8" offset="0"/>
  <stop id="s9" style="stop-color:#e7e2b8;stop-opacity:0" offset="1"/>
</linearGradient>
<linearGradient id="G6">
  <stop id="s10" style="stop-color:#c1c1c1" offset="0"/>
  <stop id="s11" style="stop-color:#acacac" offset="1"/>
</linearGradient>
<linearGradient id="G7">
  <stop id="s12" style="stop-color:#ffd1d1" offset="0"/>
  <stop id="s13" style="stop-color:#ff1d1d" offset="0.5"/>
  <stop id="s14" style="stop-color:#6f0000" offset="1"/>
</linearGradient>
<linearGradient id="G8">
  <stop id="s15" style="stop-color:#a3a4a0" offset="0"/>
  <stop id="s16" style="stop-color:#888a85" offset="1"/>
</linearGradient>
<linearGradient id="G9">
  <stop id="s17" style="stop-color:#939393" offset="0"/>
  <stop id="s18" style="stop-color:#424242" offset="1"/>
</linearGradient>
<linearGradient id="G10">
  <stop id="s19" style="stop-color:#000" offset="0"/>
  <stop id="s20" style="stop-color:#000;stop-opacity:0" offset="1"/>
</linearGradient>
<linearGradient id="G11">
  <stop id="s21" style="stop-color:#dfdfdf" offset="0"/>
  <stop id="s22" style="stop-color:#fff" offset="1"/>
</linearGradient>
<linearGradient x1="21.043484" y1="42.83337" x2="14.283642" y2="6.8333683" id="G12" xlink:href="#G11" gradientUnits="userSpaceOnUse" gradientTransform="matrix(1.137871,0,0,1,-2.660884,0)"/>
<linearGradient x1="26.612417" y1="28.083368" x2="26.228401" y2="42.83337" id="G13" xlink:href="#G9" gradientUnits="userSpaceOnUse"/>
<linearGradient x1="6" y1="7.5625" x2="40.984375" y2="7.5625" id="G14" xlink:href="#G8" gradientUnits="userSpaceOnUse"/>
<linearGradient x1="48.90625" y1="17.376184" x2="50.988335" y2="22.250591" id="G15" xlink:href="#G7" gradientUnits="userSpaceOnUse" gradientTransform="translate(-5.669292,0)"/>
<linearGradient x1="46" y1="19.8125" x2="47.6875" y2="22.625" id="G16" xlink:href="#G6" gradientUnits="userSpaceOnUse" gradientTransform="translate(-5.669292,0)"/>
<radialGradient cx="29.053354" cy="27.640751" r="3.2408545" fx="29.053354" fy="27.640751" id="radialGradient2990" xlink:href="#G5" gradientUnits="userSpaceOnUse" gradientTransform="matrix(2.923565,0,0,2.029717,-61.55532,-27.88417)"/>
<linearGradient x1="25.71875" y1="31.046875" x2="25.514589" y2="30.703125" id="G17" xlink:href="#G4" gradientUnits="userSpaceOnUse" gradientTransform="translate(-5.825542,0.125)"/>
<radialGradient cx="23.5625" cy="40.4375" r="19.5625" fx="23.5625" fy="40.4375" id="R3" xlink:href="#G10" gradientUnits="userSpaceOnUse" gradientTransform="matrix(1,0,0,0.348243,0,26.35543)"/>
</defs>
<g id="layer1">
<g transform="matrix(2.417561e-2,0,0,2.086758e-2,45.12765,40.1536)" id="g6707">
  <rect width="1339.6335" height="478.35718" x="-1559.2523" y="-150.69685" id="rect6709" style="opacity:0.4;fill:url(#G3)"/>
  <path d="M-219.61876,-150.68038C-219.61876,-150.68038-219.61876,327.65041-219.61876,327.65041C-76.744594,328.55086 125.78146,220.48075 125.78138,88.454235C125.78138,-43.572302-33.655436,-150.68036-219.61876,-150.68038z" id="p1" style="opacity:0.4;fill:url(#R2)"/>
  <path d="M-1559.2523,-150.68038C-1559.2523,-150.68038-1559.2523,327.65041-1559.2523,327.65041C-1702.1265,328.55086-1904.6525,220.48075-1904.6525,88.454235C-1904.6525,-43.572302-1745.2157,-150.68036-1559.2523,-150.68038z" id="p2" style="opacity:0.4;fill:url(#R1)"/>
</g>
<path d="M7.1638699,4.5063726L39.813122,4.5063726C40.575699,4.5063726 41.189615,5.0388241 41.189615,5.7002099C41.189615,5.7002099 43.590945,39.868907 43.590945,39.868907C43.590945,39.868907 43.603403,42.216529 43.603403,42.216529C43.603403,42.877915 42.989488,43.410366 42.226911,43.410366L4.750081,43.410366C3.9875042,43.410366 3.3735887,42.877915 3.3735887,42.216529L3.3624173,40.049613L5.7873775,5.7002099C5.7873775,5.0388241 6.4012931,4.5063726 7.1638699,4.5063726z" id="p3" style="fill:url(#G12);stroke:url(#G13)"/>
<path d="M43.125,40.4375A19.5625,6.8125 0 1 1 4,40.4375A19.5625,6.8125 0 1 1 43.125,40.4375z" transform="matrix(0.616613,0,0,0.440367,10.61425,13.94266)" id="p4" style="opacity:0.31578944;fill:url(#R3)"/>
<rect width="39.048077" height="3.0714951" rx="0.67937863" ry="0.67937863" x="3.9770372" y="39.868271" id="rect2851" style="fill:#a4a4a4"/>
<path d="M3.9267507,40.442796C3.9267507,40.442796 4.0776125,39.912466 4.6307727,39.868272L42.195375,39.868272C42.949684,39.868272 43,40.619573 43,40.619573C43,40.619573 43.02357,39 41.7161,39L5.3042159,39C4.2984702,39.088388 3.9267507,39.779883 3.9267507,40.442796z" id="p5" style="fill:#fff"/>
<path d="M6.25,5.7343749L6,10.125C6,10.125 6.3125,9 7,9L40.125,9C40.828125,8.9843749 40.859375,9.3124999 40.984375,9.8281249C40.984375,9.8281249 40.734375,5.9531249 40.734375,5.9531249C40.703125,5.4062499 40.515625,5 39.953125,5L7.0625,5C6.609375,5 6.296875,5.3437499 6.25,5.7343749z" id="p6" style="fill:url(#G14)"/>
<path d="M7.8126474,5.5404503L38.944983,5.5404503C39.66702,5.5404503 40.2483,5.3883462 40.2483,6.014572C40.2483,6.014572 42.521973,39.023077 42.521973,39.023077C42.521973,39.023077 42.622156,41.732033 42.622156,41.732033C42.622156,42.358259 42.48282,42.376269 41.760782,42.376269L4.8620444,42.376269C4.4493662,42.376269 4.4426114,42.269871 4.4426114,41.864615L4.4320338,39.194177L6.7280807,6.045822C6.7280807,5.4195962 7.09061,5.5404503 7.8126474,5.5404503z" id="p7" style="opacity:0.43859648;fill:none;stroke:#fff"/>
<g id="g2950">
  <rect width="2" height="5" rx="1" ry="1" x="8.5" y="2.5" id="rect2899" style="fill:#fce94f;stroke:#886f00"/>
  <rect width="2" height="5" rx="1" ry="1" x="12.5" y="2.5" id="rect2901" style="fill:#fce94f;stroke:#886f00"/>
  <rect width="2" height="5" rx="1" ry="1" x="16.5" y="2.5" id="rect2903" style="fill:#fce94f;stroke:#886f00"/>
  <rect width="2" height="5" rx="1" ry="1" x="20.5" y="2.5" id="rect2905" style="fill:#fce94f;stroke:#886f00"/>
  <rect width="2" height="5" rx="1" ry="1" x="24.5" y="2.5" id="rect2907" style="fill:#fce94f;stroke:#886f00"/>
  <rect width="2" height="5" rx="1" ry="1" x="28.5" y="2.5" id="rect2909" style="fill:#fce94f;stroke:#886f00"/>
  <rect width="2" height="5" rx="1" ry="1" x="32.5" y="2.5" id="rect2911" style="fill:#fce94f;stroke:#886f00"/>
  <rect width="2" height="5" rx="1" ry="1" x="36.5" y="2.5" id="rect2913" style="fill:#fce94f;stroke:#886f00"/>
</g>
<g id="g2941">
  <rect width="29" height="1" x="9" y="12" id="rect2927" style="opacity:0.2807;fill:#000"/>
  <rect width="29" height="1" x="9" y="14.981792" id="rect2929" style="opacity:0.2807;fill:#000"/>
  <rect width="13" height="1" x="9" y="18.003939" id="rect2931" style="opacity:0.2807;fill:#000"/>
  <rect width="29" height="1" x="9" y="22.985731" id="rect2933" style="opacity:0.2807;fill:#000"/>
  <rect width="29" height="1" x="9" y="26.007877" id="rect2935" style="opacity:0.2807;fill:#000"/>
  <rect width="29" height="1" x="9" y="29.030024" id="rect2937" style="opacity:0.2807;fill:#000"/>
  <rect width="8" height="1" x="9" y="32.05217" id="rect2939" style="opacity:0.2807;fill:#000"/>
</g>
<path d="M17.34116,32.5L22.96616,26.875L43.059909,17.125C46.31,15.875 48.247409,20.5 45.372409,22.125L25.34116,31.5L17.34116,32.5z" id="path2960" style="fill:#cb9022;stroke:#5c410c"/>
<path d="M38.330708,20C38.330708,20 39.768208,20.09375 40.330708,21.34375C40.910201,22.631511 40.330708,24 40.330708,24L45.361958,21.53125C45.361958,21.53125 46.81399,20.649883 46.018208,18.6875C45.233296,16.751923 43.330708,17.53125 43.330708,17.53125L38.330708,20z" id="p8" style="fill:url(#G15)"/>
<path d="M38.330708,20C38.330708,20 39.768208,20.09375 40.330708,21.34375C40.910201,22.631511 40.330708,24 40.330708,24L42.330708,23C42.330708,23 43.15774,21.681133 42.549458,20.3125C41.924458,18.90625 40.330708,19 40.330708,19L38.330708,20z" id="p9" style="fill:url(#G16)"/>
<path d="M18.768208,31.78125L23.268208,27.28125C24.768208,28.09375 25.549458,29.4375 25.143208,31L18.768208,31.78125z" id="p10" style="fill:url(#radialGradient2990)"/>
<path d="M20.111958,30.375L18.486958,31.96875L20.830708,31.65625C21.049458,30.9375 20.643208,30.59375 20.111958,30.375z" id="p11" style="fill:url(#G17)"/>
<path d="M23.268208,27.25L24.830708,28.5L40.218048,21.18133C39.773616,20.325286 38.976281,20.096733 38.314669,20.019068L23.268208,27.25z" id="p12" style="fill:#fff;fill-opacity:0.36363639"/>
<path d="M25.143208,31.0625L25.330708,30.3125L40.561798,23.1829C40.561798,23.1829 40.451638,23.796527 40.345919,23.93225L25.143208,31.0625z" id="p13" style="fill:#000;fill-opacity:0.36363639"/>
</g>
</svg>