<?xml version="1.0"?>
<!DOCTYPE svg PUBLIC "-//W3C//DTD SVG 1.1//EN"
  "http://www.w3.org/Graphics/SVG/1.1/DTD/svg11.dtd">

<svg version="1.1"
    xmlns="http://www.w3.org/2000/svg"
    xmlns:xlink="http://www.w3.org/1999/xlink">
<defs>
	<g id="arrowMarker" stroke-linecap="round">
		<line x1="-6" y1="1.5" x2="0" y2="0" />
		<line x1="-6" y1="-1.5" x2="0" y2="0" />
	</g>
	<marker id="startMarkerNormal" markerWidth="6" markerHeight="3" style="overflow:visible" orient="auto" markerUnits="userSpaceOnUse">
		<use xlink:href="#arrowMarker" stroke="lightgray" />
	</marker>
	<marker id="startMarkerBold" markerWidth="6" markerHeight="4" style="overflow:visible" orient="auto" markerUnits="userSpaceOnUse">
		<use xlink:href="#arrowMarker" stroke-width="2" stroke="black" />
	</marker>
	<marker id="startMarkerForward" markerWidth="10" markerHeight="4" style="overflow:visible" orient="auto" markerUnits="userSpaceOnUse">
		<polyline points="-8,0 -9,-6 3,0 -9,6 -8,0" fill="darkblue" />
	</marker>
	<marker id="startMarkerReverse" markerWidth="10" markerHeight="4" style="overflow:visible" orient="auto" markerUnits="userSpaceOnUse">
		<polyline points="-8,0 -9,-6 3,0 -9,6 -8,0" fill="darkred" />
	</marker>
 </defs>

<g transform="translate(2,10)"><text y="0.3em" style="text-anchor:left; font-family:Verdana,sans-serif; font-weight:bold;" font-size="8px">seq2</text></g>
<line x1="90" x2="90" y1="12" y2="15" stroke-width="1" stroke="gray" />
<g transform="translate(190,10)"><text y="0.3em" style="text-anchor:middle; font-family:Verdana,sans-serif;" font-size="6px">10</text></g>
<line x1="190" x2="190" y1="12" y2="15" stroke-width="1" stroke="gray" />
<line x1="290" x2="290" y1="12" y2="15" stroke-width="1" stroke="gray" />
<g transform="translate(390,10)"><text y="0.3em" style="text-anchor:middle; font-family:Verdana,sans-serif;" font-size="6px">20</text></g>
<line x1="390" x2="390" y1="12" y2="15" stroke-width="1" stroke="gray" />
<line x1="490" x2="490" y1="12" y2="15" stroke-width="1" stroke="gray" />
<g transform="translate(590,10)"><text y="0.3em" style="text-anchor:middle; font-family:Verdana,sans-serif;" font-size="6px">30</text></g>
<line x1="590" x2="590" y1="12" y2="15" stroke-width="1" stroke="gray" />
<line x1="690" x2="690" y1="12" y2="15" stroke-width="1" stroke="gray" />
<g transform="translate(790,10)"><text y="0.3em" style="text-anchor:middle; font-family:Verdana,sans-serif;" font-size="6px">40</text></g>
<line x1="790" x2="790" y1="12" y2="15" stroke-width="1" stroke="gray" />
<line x1="890" x2="890" y1="12" y2="15" stroke-width="1" stroke="gray" />
<g transform="translate(990,10)"><text y="0.3em" style="text-anchor:middle; font-family:Verdana,sans-serif;" font-size="6px">50</text></g>
<line x1="990" x2="990" y1="12" y2="15" stroke-width="1" stroke="gray" />
<line x1="1090" x2="1090" y1="12" y2="15" stroke-width="1" stroke="gray" />
<g transform="translate(1190,10)"><text y="0.3em" style="text-anchor:middle; font-family:Verdana,sans-serif;" font-size="6px">60</text></g>
<line x1="1190" x2="1190" y1="12" y2="15" stroke-width="1" stroke="gray" />
<line x1="1290" x2="1290" y1="12" y2="15" stroke-width="1" stroke="gray" />
<g transform="translate(1390,10)"><text y="0.3em" style="text-anchor:middle; font-family:Verdana,sans-serif;" font-size="6px">70</text></g>
<line x1="1390" x2="1390" y1="12" y2="15" stroke-width="1" stroke="gray" />
<line x1="1490" x2="1490" y1="12" y2="15" stroke-width="1" stroke="gray" />
<g transform="translate(1590,10)"><text y="0.3em" style="text-anchor:middle; font-family:Verdana,sans-serif;" font-size="6px">80</text></g>
<line x1="1590" x2="1590" y1="12" y2="15" stroke-width="1" stroke="gray" />
<line x1="1690" x2="1690" y1="12" y2="15" stroke-width="1" stroke="gray" />
<g transform="translate(1790,10)"><text y="0.3em" style="text-anchor:middle; font-family:Verdana,sans-serif;" font-size="6px">90</text></g>
<line x1="1790" x2="1790" y1="12" y2="15" stroke-width="1" stroke="gray" />
<line x1="1890" x2="1890" y1="12" y2="15" stroke-width="1" stroke="gray" />
<g transform="translate(1990,10)"><text y="0.3em" style="text-anchor:middle; font-family:Verdana,sans-serif;" font-size="6px">100</text></g>
<line x1="1990" x2="1990" y1="12" y2="15" stroke-width="1" stroke="gray" />
<line x1="2090" x2="2090" y1="12" y2="15" stroke-width="1" stroke="gray" />
<g transform="translate(2190,10)"><text y="0.3em" style="text-anchor:middle; font-family:Verdana,sans-serif;" font-size="6px">110</text></g>
<line x1="2190" x2="2190" y1="12" y2="15" stroke-width="1" stroke="gray" />
<line x1="2290" x2="2290" y1="12" y2="15" stroke-width="1" stroke="gray" />
<g transform="translate(2390,10)"><text y="0.3em" style="text-anchor:middle; font-family:Verdana,sans-serif;" font-size="6px">120</text></g>
<line x1="2390" x2="2390" y1="12" y2="15" stroke-width="1" stroke="gray" />
<line x1="2490" x2="2490" y1="12" y2="15" stroke-width="1" stroke="gray" />
<g transform="translate(2590,10)"><text y="0.3em" style="text-anchor:middle; font-family:Verdana,sans-serif;" font-size="6px">130</text></g>
<line x1="2590" x2="2590" y1="12" y2="15" stroke-width="1" stroke="gray" />
<line x1="2690" x2="2690" y1="12" y2="15" stroke-width="1" stroke="gray" />
<g transform="translate(2790,10)"><text y="0.3em" style="text-anchor:middle; font-family:Verdana,sans-serif;" font-size="6px">140</text></g>
<line x1="2790" x2="2790" y1="12" y2="15" stroke-width="1" stroke="gray" />
<line x1="2890" x2="2890" y1="12" y2="15" stroke-width="1" stroke="gray" />
<g transform="translate(2990,10)"><text y="0.3em" style="text-anchor:middle; font-family:Verdana,sans-serif;" font-size="6px">150</text></g>
<line x1="2990" x2="2990" y1="12" y2="15" stroke-width="1" stroke="gray" />
<g transform="translate(10,30)"><text y="0.3em" style="text-anchor:middle; font-family:Bitstream Vera Sans,Verdana,sans-serif;" font-size="18px">T</text></g>
<g transform="translate(30,30)"><text y="0.3em" style="text-anchor:middle; font-family:Bitstream Vera Sans,Verdana,sans-serif;" font-size="18px">T</text></g>
<g transform="translate(50,30)"><text y="0.3em" style="text-anchor:middle; font-family:Bitstream Vera Sans,Verdana,sans-serif;" font-size="18px">C</text></g>
<g transform="translate(70,30)"><text y="0.3em" style="text-anchor:middle; font-family:Bitstream Vera Sans,Verdana,sans-serif;" font-size="18px">A</text></g>
<g transform="translate(90,30)"><text y="0.3em" style="text-anchor:middle; font-family:Bitstream Vera Sans,Verdana,sans-serif;" font-size="18px">A</text></g>
<g transform="translate(110,30)"><text y="0.3em" style="text-anchor:middle; font-family:Bitstream Vera Sans,Verdana,sans-serif;" font-size="18px">A</text></g>
<g transform="translate(130,30)"><text y="0.3em" style="text-anchor:middle; font-family:Bitstream Vera Sans,Verdana,sans-serif;" font-size="18px">T</text></g>
<g transform="translate(150,30)"><text y="0.3em" style="text-anchor:middle; font-family:Bitstream Vera Sans,Verdana,sans-serif;" font-size="18px">G</text></g>
<g transform="translate(170,30)"><text y="0.3em" style="text-anchor:middle; font-family:Bitstream Vera Sans,Verdana,sans-serif;" font-size="18px">A</text></g>
<g transform="translate(190,30)"><text y="0.3em" style="text-anchor:middle; font-family:Bitstream Vera Sans,Verdana,sans-serif;" font-size="18px">A</text></g>
<g transform="translate(210,30)"><text y="0.3em" style="text-anchor:middle; font-family:Bitstream Vera Sans,Verdana,sans-serif;" font-size="18px">C</text></g>
<g transform="translate(230,30)"><text y="0.3em" style="text-anchor:middle; font-family:Bitstream Vera Sans,Verdana,sans-serif;" font-size="18px">T</text></g>
<g transform="translate(250,30)"><text y="0.3em" style="text-anchor:middle; font-family:Bitstream Vera Sans,Verdana,sans-serif;" font-size="18px">T</text></g>
<g transform="translate(270,30)"><text y="0.3em" style="text-anchor:middle; font-family:Bitstream Vera Sans,Verdana,sans-serif;" font-size="18px">C</text></g>
<g transform="translate(290,30)"><text y="0.3em" style="text-anchor:middle; font-family:Bitstream Vera Sans,Verdana,sans-serif;" font-size="18px">T</text></g>
<g transform="translate(310,30)"><text y="0.3em" style="text-anchor:middle; font-family:Bitstream Vera Sans,Verdana,sans-serif;" font-size="18px">G</text></g>
<g transform="translate(330,30)"><text y="0.3em" style="text-anchor:middle; font-family:Bitstream Vera Sans,Verdana,sans-serif;" font-size="18px">T</text></g>
<g transform="translate(350,30)"><text y="0.3em" style="text-anchor:middle; font-family:Bitstream Vera Sans,Verdana,sans-serif;" font-size="18px">A</text></g>
<g transform="translate(370,30)"><text y="0.3em" style="text-anchor:middle; font-family:Bitstream Vera Sans,Verdana,sans-serif;" font-size="18px">A</text></g>
<g transform="translate(390,30)"><text y="0.3em" style="text-anchor:middle; font-family:Bitstream Vera Sans,Verdana,sans-serif;" font-size="18px">T</text></g>
<g transform="translate(410,30)"><text y="0.3em" style="text-anchor:middle; font-family:Bitstream Vera Sans,Verdana,sans-serif;" font-size="18px">T</text></g>
<g transform="translate(430,30)"><text y="0.3em" style="text-anchor:middle; font-family:Bitstream Vera Sans,Verdana,sans-serif;" font-size="18px">G</text></g>
<g transform="translate(450,30)"><text y="0.3em" style="text-anchor:middle; font-family:Bitstream Vera Sans,Verdana,sans-serif;" font-size="18px">A</text></g>
<g transform="translate(470,30)"><text y="0.3em" style="text-anchor:middle; font-family:Bitstream Vera Sans,Verdana,sans-serif;" font-size="18px">A</text></g>
<g transform="translate(490,30)"><text y="0.3em" style="text-anchor:middle; font-family:Bitstream Vera Sans,Verdana,sans-serif;" font-size="18px">A</text></g>
<g transform="translate(510,30)"><text y="0.3em" style="text-anchor:middle; font-family:Bitstream Vera Sans,Verdana,sans-serif;" font-size="18px">A</text></g>
<g transform="translate(530,30)"><text y="0.3em" style="text-anchor:middle; font-family:Bitstream Vera Sans,Verdana,sans-serif;" font-size="18px">A</text></g>
<g transform="translate(550,30)"><text y="0.3em" style="text-anchor:middle; font-family:Bitstream Vera Sans,Verdana,sans-serif;" font-size="18px">T</text></g>
<g transform="translate(570,30)"><text y="0.3em" style="text-anchor:middle; font-family:Bitstream Vera Sans,Verdana,sans-serif;" font-size="18px">T</text></g>
<g transform="translate(590,30)"><text y="0.3em" style="text-anchor:middle; font-family:Bitstream Vera Sans,Verdana,sans-serif;" font-size="18px">C</text></g>
<g transform="translate(610,30)"><text y="0.3em" style="text-anchor:middle; font-family:Bitstream Vera Sans,Verdana,sans-serif;" font-size="18px">A</text></g>
<g transform="translate(630,30)"><text y="0.3em" style="text-anchor:middle; font-family:Bitstream Vera Sans,Verdana,sans-serif;" font-size="18px">T</text></g>
<g transform="translate(650,30)"><text y="0.3em" style="text-anchor:middle; font-family:Bitstream Vera Sans,Verdana,sans-serif;" font-size="18px">T</text></g>
<g transform="translate(670,30)"><text y="0.3em" style="text-anchor:middle; font-family:Bitstream Vera Sans,Verdana,sans-serif;" font-size="18px">T</text></g>
<g transform="translate(690,30)"><text y="0.3em" style="text-anchor:middle; font-family:Bitstream Vera Sans,Verdana,sans-serif;" font-size="18px">A</text></g>
<g transform="translate(710,30)"><text y="0.3em" style="text-anchor:middle; font-family:Bitstream Vera Sans,Verdana,sans-serif;" font-size="18px">A</text></g>
<g transform="translate(730,30)"><text y="0.3em" style="text-anchor:middle; font-family:Bitstream Vera Sans,Verdana,sans-serif;" font-size="18px">G</text></g>
<g transform="translate(750,30)"><text y="0.3em" style="text-anchor:middle; font-family:Bitstream Vera Sans,Verdana,sans-serif;" font-size="18px">A</text></g>
<g transform="translate(770,30)"><text y="0.3em" style="text-anchor:middle; font-family:Bitstream Vera Sans,Verdana,sans-serif;" font-size="18px">A</text></g>
<g transform="translate(790,30)"><text y="0.3em" style="text-anchor:middle; font-family:Bitstream Vera Sans,Verdana,sans-serif;" font-size="18px">A</text></g>
<g transform="translate(810,30)"><text y="0.3em" style="text-anchor:middle; font-family:Bitstream Vera Sans,Verdana,sans-serif;" font-size="18px">T</text></g>
<g transform="translate(830,30)"><text y="0.3em" style="text-anchor:middle; font-family:Bitstream Vera Sans,Verdana,sans-serif;" font-size="18px">T</text></g>
<g transform="translate(850,30)"><text y="0.3em" style="text-anchor:middle; font-family:Bitstream Vera Sans,Verdana,sans-serif;" font-size="18px">A</text></g>
<g transform="translate(870,30)"><text y="0.3em" style="text-anchor:middle; font-family:Bitstream Vera Sans,Verdana,sans-serif;" font-size="18px">C</text></g>
<g transform="translate(890,30)"><text y="0.3em" style="text-anchor:middle; font-family:Bitstream Vera Sans,Verdana,sans-serif;" font-size="18px">A</text></g>
<g transform="translate(910,30)"><text y="0.3em" style="text-anchor:middle; font-family:Bitstream Vera Sans,Verdana,sans-serif;" font-size="18px">A</text></g>
<g transform="translate(930,30)"><text y="0.3em" style="text-anchor:middle; font-family:Bitstream Vera Sans,Verdana,sans-serif;" font-size="18px">A</text></g>
<g transform="translate(950,30)"><text y="0.3em" style="text-anchor:middle; font-family:Bitstream Vera Sans,Verdana,sans-serif;" font-size="18px">A</text></g>
<g transform="translate(970,30)"><text y="0.3em" style="text-anchor:middle; font-family:Bitstream Vera Sans,Verdana,sans-serif;" font-size="18px">T</text></g>
<g transform="translate(990,30)"><text y="0.3em" style="text-anchor:middle; font-family:Bitstream Vera Sans,Verdana,sans-serif;" font-size="18px">A</text></g>
<g transform="translate(1010,30)"><text y="0.3em" style="text-anchor:middle; font-family:Bitstream Vera Sans,Verdana,sans-serif;" font-size="18px">T</text></g>
<g transform="translate(1030,30)"><text y="0.3em" style="text-anchor:middle; font-family:Bitstream Vera Sans,Verdana,sans-serif;" font-size="18px">A</text></g>
<g transform="translate(1050,30)"><text y="0.3em" style="text-anchor:middle; font-family:Bitstream Vera Sans,Verdana,sans-serif;" font-size="18px">G</text></g>
<g transform="translate(1070,30)"><text y="0.3em" style="text-anchor:middle; font-family:Bitstream Vera Sans,Verdana,sans-serif;" font-size="18px">T</text></g>
<g transform="translate(1090,30)"><text y="0.3em" style="text-anchor:middle; font-family:Bitstream Vera Sans,Verdana,sans-serif;" font-size="18px">T</text></g>
<g transform="translate(1110,30)"><text y="0.3em" style="text-anchor:middle; font-family:Bitstream Vera Sans,Verdana,sans-serif;" font-size="18px">G</text></g>
<g transform="translate(1130,30)"><text y="0.3em" style="text-anchor:middle; font-family:Bitstream Vera Sans,Verdana,sans-serif;" font-size="18px">A</text></g>
<g transform="translate(1150,30)"><text y="0.3em" style="text-anchor:middle; font-family:Bitstream Vera Sans,Verdana,sans-serif;" font-size="18px">A</text></g>
<g transform="translate(1170,30)"><text y="0.3em" style="text-anchor:middle; font-family:Bitstream Vera Sans,Verdana,sans-serif;" font-size="18px">A</text></g>
<g transform="translate(1190,30)"><text y="0.3em" style="text-anchor:middle; font-family:Bitstream Vera Sans,Verdana,sans-serif;" font-size="18px">G</text></g>
<g transform="translate(1210,30)"><text y="0.3em" style="text-anchor:middle; font-family:Bitstream Vera Sans,Verdana,sans-serif;" font-size="18px">C</text></g>
<g transform="translate(1230,30)"><text y="0.3em" style="text-anchor:middle; font-family:Bitstream Vera Sans,Verdana,sans-serif;" font-size="18px">T</text></g>
<g transform="translate(1250,30)"><text y="0.3em" style="text-anchor:middle; font-family:Bitstream Vera Sans,Verdana,sans-serif;" font-size="18px">C</text></g>
<g transform="translate(1270,30)"><text y="0.3em" style="text-anchor:middle; font-family:Bitstream Vera Sans,Verdana,sans-serif;" font-size="18px">T</text></g>
<g transform="translate(1290,30)"><text y="0.3em" style="text-anchor:middle; font-family:Bitstream Vera Sans,Verdana,sans-serif;" font-size="18px">A</text></g>
<g transform="translate(1310,30)"><text y="0.3em" style="text-anchor:middle; font-family:Bitstream Vera Sans,Verdana,sans-serif;" font-size="18px">A</text></g>
<g transform="translate(1330,30)"><text y="0.3em" style="text-anchor:middle; font-family:Bitstream Vera Sans,Verdana,sans-serif;" font-size="18px">C</text></g>
<g transform="translate(1350,30)"><text y="0.3em" style="text-anchor:middle; font-family:Bitstream Vera Sans,Verdana,sans-serif;" font-size="18px">A</text></g>
<g transform="translate(1370,30)"><text y="0.3em" style="text-anchor:middle; font-family:Bitstream Vera Sans,Verdana,sans-serif;" font-size="18px">A</text></g>
<g transform="translate(1390,30)"><text y="0.3em" style="text-anchor:middle; font-family:Bitstream Vera Sans,Verdana,sans-serif;" font-size="18px">T</text></g>
<g transform="translate(1410,30)"><text y="0.3em" style="text-anchor:middle; font-family:Bitstream Vera Sans,Verdana,sans-serif;" font-size="18px">A</text></g>
<g transform="translate(1430,30)"><text y="0.3em" style="text-anchor:middle; font-family:Bitstream Vera Sans,Verdana,sans-serif;" font-size="18px">G</text></g>
<g transform="translate(1450,30)"><text y="0.3em" style="text-anchor:middle; font-family:Bitstream Vera Sans,Verdana,sans-serif;" font-size="18px">A</text></g>
<g transform="translate(1470,30)"><text y="0.3em" style="text-anchor:middle; font-family:Bitstream Vera Sans,Verdana,sans-serif;" font-size="18px">C</text></g>
<g transform="translate(1490,30)"><text y="0.3em" style="text-anchor:middle; font-family:Bitstream Vera Sans,Verdana,sans-serif;" font-size="18px">T</text></g>
<g transform="translate(1510,30)"><text y="0.3em" style="text-anchor:middle; font-family:Bitstream Vera Sans,Verdana,sans-serif;" font-size="18px">A</text></g>
<g transform="translate(1530,30)"><text y="0.3em" style="text-anchor:middle; font-family:Bitstream Vera Sans,Verdana,sans-serif;" font-size="18px">A</text></g>
<g transform="translate(1550,30)"><text y="0.3em" style="text-anchor:middle; font-family:Bitstream Vera Sans,Verdana,sans-serif;" font-size="18px">A</text></g>
<g transform="translate(1570,30)"><text y="0.3em" style="text-anchor:middle; font-family:Bitstream Vera Sans,Verdana,sans-serif;" font-size="18px">C</text></g>
<g transform="translate(1590,30)"><text y="0.3em" style="text-anchor:middle; font-family:Bitstream Vera Sans,Verdana,sans-serif;" font-size="18px">C</text></g>
<g transform="translate(1610,30)"><text y="0.3em" style="text-anchor:middle; font-family:Bitstream Vera Sans,Verdana,sans-serif;" font-size="18px">A</text></g>
<g transform="translate(1630,30)"><text y="0.3em" style="text-anchor:middle; font-family:Bitstream Vera Sans,Verdana,sans-serif;" font-size="18px">A</text></g>
<g transform="translate(1650,30)"><text y="0.3em" style="text-anchor:middle; font-family:Bitstream Vera Sans,Verdana,sans-serif;" font-size="18px">G</text></g>
<g transform="translate(1670,30)"><text y="0.3em" style="text-anchor:middle; font-family:Bitstream Vera Sans,Verdana,sans-serif;" font-size="18px">C</text></g>
<g transform="translate(1690,30)"><text y="0.3em" style="text-anchor:middle; font-family:Bitstream Vera Sans,Verdana,sans-serif;" font-size="18px">A</text></g>
<g transform="translate(1710,30)"><text y="0.3em" style="text-anchor:middle; font-family:Bitstream Vera Sans,Verdana,sans-serif;" font-size="18px">G</text></g>
<g transform="translate(1730,30)"><text y="0.3em" style="text-anchor:middle; font-family:Bitstream Vera Sans,Verdana,sans-serif;" font-size="18px">A</text></g>
<g transform="translate(1750,30)"><text y="0.3em" style="text-anchor:middle; font-family:Bitstream Vera Sans,Verdana,sans-serif;" font-size="18px">A</text></g>
<g transform="translate(1770,30)"><text y="0.3em" style="text-anchor:middle; font-family:Bitstream Vera Sans,Verdana,sans-serif;" font-size="18px">G</text></g>
<g transform="translate(1790,30)"><text y="0.3em" style="text-anchor:middle; font-family:Bitstream Vera Sans,Verdana,sans-serif;" font-size="18px">A</text></g>
<g transform="translate(1810,30)"><text y="0.3em" style="text-anchor:middle; font-family:Bitstream Vera Sans,Verdana,sans-serif;" font-size="18px">A</text></g>
<g transform="translate(1830,30)"><text y="0.3em" style="text-anchor:middle; font-family:Bitstream Vera Sans,Verdana,sans-serif;" font-size="18px">A</text></g>
<g transform="translate(1850,30)"><text y="0.3em" style="text-anchor:middle; font-family:Bitstream Vera Sans,Verdana,sans-serif;" font-size="18px">G</text></g>
<g transform="translate(1870,30)"><text y="0.3em" style="text-anchor:middle; font-family:Bitstream Vera Sans,Verdana,sans-serif;" font-size="18px">A</text></g>
<g transform="translate(1890,30)"><text y="0.3em" style="text-anchor:middle; font-family:Bitstream Vera Sans,Verdana,sans-serif;" font-size="18px">G</text></g>
<g transform="translate(1910,30)"><text y="0.3em" style="text-anchor:middle; font-family:Bitstream Vera Sans,Verdana,sans-serif;" font-size="18px">G</text></g>
<g transform="translate(1930,30)"><text y="0.3em" style="text-anchor:middle; font-family:Bitstream Vera Sans,Verdana,sans-serif;" font-size="18px">T</text></g>
<g transform="translate(1950,30)"><text y="0.3em" style="text-anchor:middle; font-family:Bitstream Vera Sans,Verdana,sans-serif;" font-size="18px">T</text></g>
<g transform="translate(1970,30)"><text y="0.3em" style="text-anchor:middle; font-family:Bitstream Vera Sans,Verdana,sans-serif;" font-size="18px">C</text></g>
<g transform="translate(1990,30)"><text y="0.3em" style="text-anchor:middle; font-family:Bitstream Vera Sans,Verdana,sans-serif;" font-size="18px">A</text></g>
<g transform="translate(2010,30)"><text y="0.3em" style="text-anchor:middle; font-family:Bitstream Vera Sans,Verdana,sans-serif;" font-size="18px">G</text></g>
<g transform="translate(2030,30)"><text y="0.3em" style="text-anchor:middle; font-family:Bitstream Vera Sans,Verdana,sans-serif;" font-size="18px">A</text></g>
<g transform="translate(2050,30)"><text y="0.3em" style="text-anchor:middle; font-family:Bitstream Vera Sans,Verdana,sans-serif;" font-size="18px">A</text></g>
<g transform="translate(2070,30)"><text y="0.3em" style="text-anchor:middle; font-family:Bitstream Vera Sans,Verdana,sans-serif;" font-size="18px">C</text></g>
<g transform="translate(2090,30)"><text y="0.3em" style="text-anchor:middle; font-family:Bitstream Vera Sans,Verdana,sans-serif;" font-size="18px">T</text></g>
<g transform="translate(2110,30)"><text y="0.3em" style="text-anchor:middle; font-family:Bitstream Vera Sans,Verdana,sans-serif;" font-size="18px">T</text></g>
<g transform="translate(2130,30)"><text y="0.3em" style="text-anchor:middle; font-family:Bitstream Vera Sans,Verdana,sans-serif;" font-size="18px">G</text></g>
<g transform="translate(2150,30)"><text y="0.3em" style="text-anchor:middle; font-family:Bitstream Vera Sans,Verdana,sans-serif;" font-size="18px">A</text></g>
<g transform="translate(2170,30)"><text y="0.3em" style="text-anchor:middle; font-family:Bitstream Vera Sans,Verdana,sans-serif;" font-size="18px">A</text></g>
<g transform="translate(2190,30)"><text y="0.3em" style="text-anchor:middle; font-family:Bitstream Vera Sans,Verdana,sans-serif;" font-size="18px">G</text></g>
<g transform="translate(2210,30)"><text y="0.3em" style="text-anchor:middle; font-family:Bitstream Vera Sans,Verdana,sans-serif;" font-size="18px">A</text></g>
<g transform="translate(2230,30)"><text y="0.3em" style="text-anchor:middle; font-family:Bitstream Vera Sans,Verdana,sans-serif;" font-size="18px">C</text></g>
<g transform="translate(2250,30)"><text y="0.3em" style="text-anchor:middle; font-family:Bitstream Vera Sans,Verdana,sans-serif;" font-size="18px">A</text></g>
<g transform="translate(2270,30)"><text y="0.3em" style="text-anchor:middle; font-family:Bitstream Vera Sans,Verdana,sans-serif;" font-size="18px">A</text></g>
<g transform="translate(2290,30)"><text y="0.3em" style="text-anchor:middle; font-family:Bitstream Vera Sans,Verdana,sans-serif;" font-size="18px">G</text></g>
<g transform="translate(2310,30)"><text y="0.3em" style="text-anchor:middle; font-family:Bitstream Vera Sans,Verdana,sans-serif;" font-size="18px">T</text></g>
<g transform="translate(2330,30)"><text y="0.3em" style="text-anchor:middle; font-family:Bitstream Vera Sans,Verdana,sans-serif;" font-size="18px">C</text></g>
<g transform="translate(2350,30)"><text y="0.3em" style="text-anchor:middle; font-family:Bitstream Vera Sans,Verdana,sans-serif;" font-size="18px">T</text></g>
<g transform="translate(2370,30)"><text y="0.3em" style="text-anchor:middle; font-family:Bitstream Vera Sans,Verdana,sans-serif;" font-size="18px">C</text></g>
<g transform="translate(2390,30)"><text y="0.3em" style="text-anchor:middle; font-family:Bitstream Vera Sans,Verdana,sans-serif;" font-size="18px">T</text></g>
<g transform="translate(2410,30)"><text y="0.3em" style="text-anchor:middle; font-family:Bitstream Vera Sans,Verdana,sans-serif;" font-size="18px">T</text></g>
<g transform="translate(2430,30)"><text y="0.3em" style="text-anchor:middle; font-family:Bitstream Vera Sans,Verdana,sans-serif;" font-size="18px">A</text></g>
<g transform="translate(2450,30)"><text y="0.3em" style="text-anchor:middle; font-family:Bitstream Vera Sans,Verdana,sans-serif;" font-size="18px">T</text></g>
<g transform="translate(2470,30)"><text y="0.3em" style="text-anchor:middle; font-family:Bitstream Vera Sans,Verdana,sans-serif;" font-size="18px">G</text></g>
<g transform="translate(2490,30)"><text y="0.3em" style="text-anchor:middle; font-family:Bitstream Vera Sans,Verdana,sans-serif;" font-size="18px">A</text></g>
<g transform="translate(2510,30)"><text y="0.3em" style="text-anchor:middle; font-family:Bitstream Vera Sans,Verdana,sans-serif;" font-size="18px">A</text></g>
<g transform="translate(2530,30)"><text y="0.3em" style="text-anchor:middle; font-family:Bitstream Vera Sans,Verdana,sans-serif;" font-size="18px">T</text></g>
<g transform="translate(2550,30)"><text y="0.3em" style="text-anchor:middle; font-family:Bitstream Vera Sans,Verdana,sans-serif;" font-size="18px">T</text></g>
<g transform="translate(2570,30)"><text y="0.3em" style="text-anchor:middle; font-family:Bitstream Vera Sans,Verdana,sans-serif;" font-size="18px">A</text></g>
<g transform="translate(2590,30)"><text y="0.3em" style="text-anchor:middle; font-family:Bitstream Vera Sans,Verdana,sans-serif;" font-size="18px">A</text></g>
<g transform="translate(2610,30)"><text y="0.3em" style="text-anchor:middle; font-family:Bitstream Vera Sans,Verdana,sans-serif;" font-size="18px">C</text></g>
<g transform="translate(2630,30)"><text y="0.3em" style="text-anchor:middle; font-family:Bitstream Vera Sans,Verdana,sans-serif;" font-size="18px">C</text></g>
<g transform="translate(2650,30)"><text y="0.3em" style="text-anchor:middle; font-family:Bitstream Vera Sans,Verdana,sans-serif;" font-size="18px">C</text></g>
<g transform="translate(2670,30)"><text y="0.3em" style="text-anchor:middle; font-family:Bitstream Vera Sans,Verdana,sans-serif;" font-size="18px">A</text></g>
<g transform="translate(2690,30)"><text y="0.3em" style="text-anchor:middle; font-family:Bitstream Vera Sans,Verdana,sans-serif;" font-size="18px">G</text></g>
<g transform="translate(2710,30)"><text y="0.3em" style="text-anchor:middle; font-family:Bitstream Vera Sans,Verdana,sans-serif;" font-size="18px">T</text></g>
<g transform="translate(2730,30)"><text y="0.3em" style="text-anchor:middle; font-family:Bitstream Vera Sans,Verdana,sans-serif;" font-size="18px">C</text></g>
<g transform="translate(2750,30)"><text y="0.3em" style="text-anchor:middle; font-family:Bitstream Vera Sans,Verdana,sans-serif;" font-size="18px">A</text></g>
<g transform="translate(2770,30)"><text y="0.3em" style="text-anchor:middle; font-family:Bitstream Vera Sans,Verdana,sans-serif;" font-size="18px">G</text></g>
<g transform="translate(2790,30)"><text y="0.3em" style="text-anchor:middle; font-family:Bitstream Vera Sans,Verdana,sans-serif;" font-size="18px">A</text></g>
<g transform="translate(2810,30)"><text y="0.3em" style="text-anchor:middle; font-family:Bitstream Vera Sans,Verdana,sans-serif;" font-size="18px">C</text></g>
<g transform="translate(2830,30)"><text y="0.3em" style="text-anchor:middle; font-family:Bitstream Vera Sans,Verdana,sans-serif;" font-size="18px">A</text></g>
<g transform="translate(2850,30)"><text y="0.3em" style="text-anchor:middle; font-family:Bitstream Vera Sans,Verdana,sans-serif;" font-size="18px">A</text></g>
<g transform="translate(2870,30)"><text y="0.3em" style="text-anchor:middle; font-family:Bitstream Vera Sans,Verdana,sans-serif;" font-size="18px">A</text></g>
<g transform="translate(2890,30)"><text y="0.3em" style="text-anchor:middle; font-family:Bitstream Vera Sans,Verdana,sans-serif;" font-size="18px">A</text></g>
<g transform="translate(2910,30)"><text y="0.3em" style="text-anchor:middle; font-family:Bitstream Vera Sans,Verdana,sans-serif;" font-size="18px">A</text></g>
<g transform="translate(2930,30)"><text y="0.3em" style="text-anchor:middle; font-family:Bitstream Vera Sans,Verdana,sans-serif;" font-size="18px">T</text></g>
<g transform="translate(2950,30)"><text y="0.3em" style="text-anchor:middle; font-family:Bitstream Vera Sans,Verdana,sans-serif;" font-size="18px">A</text></g>
<g transform="translate(2970,30)"><text y="0.3em" style="text-anchor:middle; font-family:Bitstream Vera Sans,Verdana,sans-serif;" font-size="18px">A</text></g>
<g transform="translate(2990,30)"><text y="0.3em" style="text-anchor:middle; font-family:Bitstream Vera Sans,Verdana,sans-serif;" font-size="18px">A</text></g>
<line x1="0" y1="50" x2="710" y2="50" style="stroke:darkblue;stroke-width:3;" marker-end="url(#startMarkerForward)" />
<line x1="760" y1="50" x2="1450" y2="50" style="stroke:darkblue;stroke-width:3;" marker-end="url(#startMarkerForward)" />
<line x1="1520" y1="50" x2="2210" y2="50" style="stroke:darkblue;stroke-width:3;" marker-end="url(#startMarkerForward)" />
<line x1="2260" y1="50" x2="2950" y2="50" style="stroke:darkblue;stroke-width:3;" marker-end="url(#startMarkerForward)" />
<line x1="2980" y1="50" x2="3000" y2="50" style="stroke:darkblue;stroke-width:3;" />
<line x1="0" y1="70" x2="690" y2="70" style="stroke:darkblue;stroke-width:3;" marker-end="url(#startMarkerForward)" />
<line x1="720" y1="70" x2="1410" y2="70" style="stroke:darkblue;stroke-width:3;" marker-end="url(#startMarkerForward)" />
<line x1="1440" y1="70" x2="2130" y2="70" style="stroke:darkblue;stroke-width:3;" marker-end="url(#startMarkerForward)" />
<line x1="2160" y1="70" x2="2850" y2="70" style="stroke:darkblue;stroke-width:3;" marker-end="url(#startMarkerForward)" />
<line x1="2940" y1="70" x2="3000" y2="70" style="stroke:darkblue;stroke-width:3;" />
<line x2="0" y1="90" x1="695" y2="90" style="stroke:darkred;stroke-width:3;" marker-end="url(#startMarkerReverse)" />
<line x1="720" y1="90" x2="1430" y2="90" style="stroke:darkblue;stroke-width:3;" marker-end="url(#startMarkerForward)" />
<line x1="1520" y1="90" x2="1920" y2="90" style="stroke:darkblue;stroke-width:3;" />
<g transform="translate(1930,90)"><text y="0.3em" style="text-anchor:middle; font-family:Bitstream Vera Sans,Verdana,sans-serif;" font-size="18px">C</text></g>
<line x1="1940" y1="90" x2="2210" y2="90" style="stroke:darkblue;stroke-width:3;" marker-end="url(#startMarkerForward)" />
<line x1="2260" y1="90" x2="2950" y2="90" style="stroke:darkblue;stroke-width:3;" marker-end="url(#startMarkerForward)" />
<line x1="2980" y1="90" x2="3000" y2="90" style="stroke:darkblue;stroke-width:3;" />
<line x1="20" y1="110" x2="710" y2="110" style="stroke:darkblue;stroke-width:3;" marker-end="url(#startMarkerForward)" />
<line x1="780" y1="110" x2="1200" y2="110" style="stroke:darkblue;stroke-width:3;" />
<g transform="translate(1210,110)"><text y="0.3em" style="text-anchor:middle; font-family:Bitstream Vera Sans,Verdana,sans-serif;" font-size="18px">A</text></g>
<line x1="1220" y1="110" x2="1470" y2="110" style="stroke:darkblue;stroke-width:3;" marker-end="url(#startMarkerForward)" />
<line x1="1560" y1="110" x2="2270" y2="110" style="stroke:darkblue;stroke-width:3;" marker-end="url(#startMarkerForward)" />
<line x1="2380" y1="110" x2="3000" y2="110" style="stroke:darkblue;stroke-width:3;" />
<line x1="80" y1="130" x2="770" y2="130" style="stroke:darkblue;stroke-width:3;" marker-end="url(#startMarkerForward)" />
<line x1="800" y1="130" x2="1490" y2="130" style="stroke:darkblue;stroke-width:3;" marker-end="url(#startMarkerForward)" />
<line x1="1600" y1="130" x2="2290" y2="130" style="stroke:darkblue;stroke-width:3;" marker-end="url(#startMarkerForward)" />
<line x1="2400" y1="130" x2="3000" y2="130" style="stroke:darkblue;stroke-width:3;" />
<line x1="100" y1="150" x2="790" y2="150" style="stroke:darkblue;stroke-width:3;" marker-end="url(#startMarkerForward)" />
<line x1="840" y1="150" x2="1530" y2="150" style="stroke:darkblue;stroke-width:3;" marker-end="url(#startMarkerForward)" />
<line x1="1640" y1="150" x2="2330" y2="150" style="stroke:darkblue;stroke-width:3;" marker-end="url(#startMarkerForward)" />
<line x1="2420" y1="150" x2="2640" y2="150" style="stroke:darkblue;stroke-width:3;" />
<g transform="translate(2650,150)"><text y="0.3em" style="text-anchor:middle; font-family:Bitstream Vera Sans,Verdana,sans-serif;" font-size="18px">A</text></g>
<line x1="2660" y1="150" x2="3000" y2="150" style="stroke:darkblue;stroke-width:3;" />
<line x1="100" y1="170" x2="790" y2="170" style="stroke:darkblue;stroke-width:3;" marker-end="url(#startMarkerForward)" />
<line x1="840" y1="170" x2="1530" y2="170" style="stroke:darkblue;stroke-width:3;" marker-end="url(#startMarkerForward)" />
<line x1="1660" y1="170" x2="2350" y2="170" style="stroke:darkblue;stroke-width:3;" marker-end="url(#startMarkerForward)" />
<line x1="2440" y1="170" x2="3000" y2="170" style="stroke:darkblue;stroke-width:3;" />
<line x1="100" y1="190" x2="790" y2="190" style="stroke:darkblue;stroke-width:3;" marker-end="url(#startMarkerForward)" />
<line x1="840" y1="190" x2="1530" y2="190" style="stroke:darkblue;stroke-width:3;" marker-end="url(#startMarkerForward)" />
<line x1="1660" y1="190" x2="2000" y2="190" style="stroke:darkblue;stroke-width:3;" />
<g transform="translate(2010,190)"><text y="0.3em" style="text-anchor:middle; font-family:Bitstream Vera Sans,Verdana,sans-serif;" font-size="18px">N</text></g>
<line x1="2020" y1="190" x2="2040" y2="190" style="stroke:darkblue;stroke-width:3;" />
<g transform="translate(2050,190)"><text y="0.3em" style="text-anchor:middle; font-family:Bitstream Vera Sans,Verdana,sans-serif;" font-size="18px">N</text></g>
<g transform="translate(2070,190)"><text y="0.3em" style="text-anchor:middle; font-family:Bitstream Vera Sans,Verdana,sans-serif;" font-size="18px">N</text></g>
<g transform="translate(2090,190)"><text y="0.3em" style="text-anchor:middle; font-family:Bitstream Vera Sans,Verdana,sans-serif;" font-size="18px">N</text></g>
<line x1="2100" y1="190" x2="2160" y2="190" style="stroke:darkblue;stroke-width:3;" />
<g transform="translate(2170,190)"><text y="0.3em" style="text-anchor:middle; font-family:Bitstream Vera Sans,Verdana,sans-serif;" font-size="18px">N</text></g>
<line x1="2180" y1="190" x2="2350" y2="190" style="stroke:darkblue;stroke-width:3;" marker-end="url(#startMarkerForward)" />
<line x1="2440" y1="190" x2="3000" y2="190" style="stroke:darkblue;stroke-width:3;" />
<line x1="120" y1="210" x2="830" y2="210" style="stroke:darkblue;stroke-width:3;" marker-end="url(#startMarkerForward)" />
<line x1="860" y1="210" x2="1550" y2="210" style="stroke:darkblue;stroke-width:3;" marker-end="url(#startMarkerForward)" />
<line x1="1700" y1="210" x2="2390" y2="210" style="stroke:darkblue;stroke-width:3;" marker-end="url(#startMarkerForward)" />
<line x1="2460" y1="210" x2="2920" y2="210" style="stroke:darkblue;stroke-width:3;" />
<g transform="translate(2930,210)"><text y="0.3em" style="text-anchor:middle; font-family:Bitstream Vera Sans,Verdana,sans-serif;" font-size="18px">N</text></g>
<g transform="translate(2950,210)"><text y="0.3em" style="text-anchor:middle; font-family:Bitstream Vera Sans,Verdana,sans-serif;" font-size="18px">N</text></g>
<line x1="2960" y1="210" x2="3000" y2="210" style="stroke:darkblue;stroke-width:3;" />
<line x1="120" y1="230" x2="810" y2="230" style="stroke:darkblue;stroke-width:3;" marker-end="url(#startMarkerForward)" />
<line x1="880" y1="230" x2="1570" y2="230" style="stroke:darkblue;stroke-width:3;" marker-end="url(#startMarkerForward)" />
<line x1="1720" y1="230" x2="2380" y2="230" style="stroke:darkblue;stroke-width:3;" />
<g transform="translate(2390,230)"><text y="0.3em" style="text-anchor:middle; font-family:Bitstream Vera Sans,Verdana,sans-serif;" font-size="18px">G</text></g>
<line x1="2400" y1="230" x2="2410" y2="230" style="stroke:darkblue;stroke-width:3;" marker-end="url(#startMarkerForward)" />
<line x1="2460" y1="230" x2="3000" y2="230" style="stroke:darkblue;stroke-width:3;" />
<line x1="120" y1="250" x2="810" y2="250" style="stroke:darkblue;stroke-width:3;" marker-end="url(#startMarkerForward)" />
<line x1="880" y1="250" x2="1570" y2="250" style="stroke:darkblue;stroke-width:3;" marker-end="url(#startMarkerForward)" />
<line x1="1720" y1="250" x2="2410" y2="250" style="stroke:darkblue;stroke-width:3;" marker-end="url(#startMarkerForward)" />
<line x1="2480" y1="250" x2="3000" y2="250" style="stroke:darkblue;stroke-width:3;" />
<line x1="120" y1="270" x2="810" y2="270" style="stroke:darkblue;stroke-width:3;" marker-end="url(#startMarkerForward)" />
<line x1="900" y1="270" x2="1590" y2="270" style="stroke:darkblue;stroke-width:3;" marker-end="url(#startMarkerForward)" />
<line x1="1760" y1="270" x2="2470" y2="270" style="stroke:darkblue;stroke-width:3;" marker-end="url(#startMarkerForward)" />
<line x1="2940" y1="270" x2="3000" y2="270" style="stroke:darkblue;stroke-width:3;" />
<line x1="140" y1="290" x2="830" y2="290" style="stroke:darkblue;stroke-width:3;" marker-end="url(#startMarkerForward)" />
<line x1="900" y1="290" x2="1590" y2="290" style="stroke:darkblue;stroke-width:3;" marker-end="url(#startMarkerForward)" />
<line x1="1800" y1="290" x2="2490" y2="290" style="stroke:darkblue;stroke-width:3;" marker-end="url(#startMarkerForward)" />
<line x1="140" y1="310" x2="830" y2="310" style="stroke:darkblue;stroke-width:3;" marker-end="url(#startMarkerForward)" />
<line x1="920" y1="310" x2="1630" y2="310" style="stroke:darkblue;stroke-width:3;" marker-end="url(#startMarkerForward)" />
<line x1="1800" y1="310" x2="2490" y2="310" style="stroke:darkblue;stroke-width:3;" marker-end="url(#startMarkerForward)" />
<line x1="200" y1="330" x2="890" y2="330" style="stroke:darkblue;stroke-width:3;" marker-end="url(#startMarkerForward)" />
<line x1="940" y1="330" x2="1630" y2="330" style="stroke:darkblue;stroke-width:3;" marker-end="url(#startMarkerForward)" />
<line x1="1840" y1="330" x2="2530" y2="330" style="stroke:darkblue;stroke-width:3;" marker-end="url(#startMarkerForward)" />
<line x1="220" y1="350" x2="910" y2="350" style="stroke:darkblue;stroke-width:3;" marker-end="url(#startMarkerForward)" />
<line x1="980" y1="350" x2="1670" y2="350" style="stroke:darkblue;stroke-width:3;" marker-end="url(#startMarkerForward)" />
<line x1="1840" y1="350" x2="2530" y2="350" style="stroke:darkblue;stroke-width:3;" marker-end="url(#startMarkerForward)" />
<line x1="300" y1="370" x2="990" y2="370" style="stroke:darkblue;stroke-width:3;" marker-end="url(#startMarkerForward)" />
<line x1="1020" y1="370" x2="1710" y2="370" style="stroke:darkblue;stroke-width:3;" marker-end="url(#startMarkerForward)" />
<line x1="1860" y1="370" x2="2550" y2="370" style="stroke:darkblue;stroke-width:3;" marker-end="url(#startMarkerForward)" />
<line x1="320" y1="390" x2="1010" y2="390" style="stroke:darkblue;stroke-width:3;" marker-end="url(#startMarkerForward)" />
<line x1="1060" y1="390" x2="1750" y2="390" style="stroke:darkblue;stroke-width:3;" marker-end="url(#startMarkerForward)" />
<line x1="1880" y1="390" x2="2570" y2="390" style="stroke:darkblue;stroke-width:3;" marker-end="url(#startMarkerForward)" />
<line x1="340" y1="410" x2="1030" y2="410" style="stroke:darkblue;stroke-width:3;" marker-end="url(#startMarkerForward)" />
<line x1="1100" y1="410" x2="1890" y2="410" style="stroke:darkblue;stroke-width:3;" marker-end="url(#startMarkerForward)" />
<line x1="1920" y1="410" x2="2610" y2="410" style="stroke:darkblue;stroke-width:3;" marker-end="url(#startMarkerForward)" />
<line x1="460" y1="430" x2="1150" y2="430" style="stroke:darkblue;stroke-width:3;" marker-end="url(#startMarkerForward)" />
<line x1="1240" y1="430" x2="1900" y2="430" style="stroke:darkblue;stroke-width:3;" />
<g transform="translate(1910,430)"><text y="0.3em" style="text-anchor:middle; font-family:Bitstream Vera Sans,Verdana,sans-serif;" font-size="18px">T</text></g>
<line x1="1920" y1="430" x2="1930" y2="430" style="stroke:darkblue;stroke-width:3;" marker-end="url(#startMarkerForward)" />
<line x1="2060" y1="430" x2="2750" y2="430" style="stroke:darkblue;stroke-width:3;" marker-end="url(#startMarkerForward)" />
<line x1="480" y1="450" x2="1170" y2="450" style="stroke:darkblue;stroke-width:3;" marker-end="url(#startMarkerForward)" />
<line x1="1240" y1="450" x2="1950" y2="450" style="stroke:darkblue;stroke-width:3;" marker-end="url(#startMarkerForward)" />
<line x1="2080" y1="450" x2="2770" y2="450" style="stroke:darkblue;stroke-width:3;" marker-end="url(#startMarkerForward)" />
<line x1="500" y1="470" x2="1190" y2="470" style="stroke:darkblue;stroke-width:3;" marker-end="url(#startMarkerForward)" />
<line x1="1260" y1="470" x2="1950" y2="470" style="stroke:darkblue;stroke-width:3;" marker-end="url(#startMarkerForward)" />
<line x1="2100" y1="470" x2="2790" y2="470" style="stroke:darkblue;stroke-width:3;" marker-end="url(#startMarkerForward)" />
<line x1="580" y1="490" x2="1270" y2="490" style="stroke:darkblue;stroke-width:3;" marker-end="url(#startMarkerForward)" />
<line x1="1300" y1="490" x2="1990" y2="490" style="stroke:darkblue;stroke-width:3;" marker-end="url(#startMarkerForward)" />
<line x1="2100" y1="490" x2="2890" y2="490" style="stroke:darkblue;stroke-width:3;" marker-end="url(#startMarkerForward)" />
<line x1="640" y1="510" x2="1330" y2="510" style="stroke:darkblue;stroke-width:3;" marker-end="url(#startMarkerForward)" />
<line x1="1420" y1="510" x2="2110" y2="510" style="stroke:darkblue;stroke-width:3;" marker-end="url(#startMarkerForward)" />
<line x1="2140" y1="510" x2="2830" y2="510" style="stroke:darkblue;stroke-width:3;" marker-end="url(#startMarkerForward)" />
<line x1="660" y1="530" x2="1450" y2="530" style="stroke:darkblue;stroke-width:3;" marker-end="url(#startMarkerForward)" />
<line x1="1880" y1="530" x2="2570" y2="530" style="stroke:darkblue;stroke-width:3;" marker-end="url(#startMarkerForward)" />
<line x1="800" y1="550" x2="1490" y2="550" style="stroke:darkblue;stroke-width:3;" marker-end="url(#startMarkerForward)" />
<line x1="1880" y1="550" x2="2570" y2="550" style="stroke:darkblue;stroke-width:3;" marker-end="url(#startMarkerForward)" />
<line x1="980" y1="570" x2="1670" y2="570" style="stroke:darkblue;stroke-width:3;" marker-end="url(#startMarkerForward)" />
<line x1="1900" y1="570" x2="2610" y2="570" style="stroke:darkblue;stroke-width:3;" marker-end="url(#startMarkerForward)" />
<line x1="1120" y1="590" x2="1810" y2="590" style="stroke:darkblue;stroke-width:3;" marker-end="url(#startMarkerForward)" />
<line x1="1940" y1="590" x2="2630" y2="590" style="stroke:darkblue;stroke-width:3;" marker-end="url(#startMarkerForward)" />
<line x1="1120" y1="610" x2="1810" y2="610" style="stroke:darkblue;stroke-width:3;" marker-end="url(#startMarkerForward)" />
<g transform="translate(2130,610)"><text y="0.3em" style="text-anchor:middle; font-family:Bitstream Vera Sans,Verdana,sans-serif;" font-size="18px">N</text></g>
<line x1="2140" y1="610" x2="2830" y2="610" style="stroke:darkblue;stroke-width:3;" marker-end="url(#startMarkerForward)" />
<line x1="1140" y1="630" x2="1830" y2="630" style="stroke:darkblue;stroke-width:3;" marker-end="url(#startMarkerForward)" />
<line x1="2120" y1="630" x2="2810" y2="630" style="stroke:darkblue;stroke-width:3;" marker-end="url(#startMarkerForward)" />
<line x1="1260" y1="650" x2="1950" y2="650" style="stroke:darkblue;stroke-width:3;" marker-end="url(#startMarkerForward)" />
<line x1="2260" y1="650" x2="2950" y2="650" style="stroke:darkblue;stroke-width:3;" marker-end="url(#startMarkerForward)" />
<line x1="1260" y1="670" x2="1950" y2="670" style="stroke:darkblue;stroke-width:3;" marker-end="url(#startMarkerForward)" />
<line x1="2280" y1="670" x2="2970" y2="670" style="stroke:darkblue;stroke-width:3;" marker-end="url(#startMarkerForward)" />
<line x1="1280" y1="690" x2="1970" y2="690" style="stroke:darkblue;stroke-width:3;" marker-end="url(#startMarkerForward)" />
<line x1="1280" y1="710" x2="1970" y2="710" style="stroke:darkblue;stroke-width:3;" marker-end="url(#startMarkerForward)" />
<line x1="1340" y1="730" x2="2030" y2="730" style="stroke:darkblue;stroke-width:3;" marker-end="url(#startMarkerForward)" />
<line x1="1340" y1="750" x2="2030" y2="750" style="stroke:darkblue;stroke-width:3;" marker-end="url(#startMarkerForward)" />

</svg>
